<svg class="svg-icon" style="width: 1em; height: 1em;vertical-align: middle;fill: currentColor;overflow: hidden;" viewBox="0 0 1024 1024" version="1.1" xmlns="http://www.w3.org/2000/svg"><path d="M820 1024H204c-83.8 0-152-68.2-152-152V152C52 68.2 120.2 0 204 0h52c17.7 0 32 14.3 32 32s-14.3 32-32 32h-52c-48.5 0-88 39.5-88 88v720c0 48.5 39.5 88 88 88h616c48.5 0 88-39.5 88-88V152c0-48.5-39.5-88-88-88h-51.9c-17.7 0-32-14.3-32-32s14.3-32 32-32H820c83.8 0 152 68.2 152 152v720c0 83.8-68.2 152-152 152z" fill="#1976d2" /><path d="M608 64H416c-17.7 0-32-14.3-32-32s14.3-32 32-32h192c17.7 0 32 14.3 32 32s-14.3 32-32 32zM762.7 319.3H261.3c-15.6 0-28.3-12.7-28.3-28.3v-7.4c0-15.6 12.7-28.3 28.3-28.3h501.4c15.6 0 28.3 12.7 28.3 28.3v7.4c0 15.5-12.7 28.3-28.3 28.3zM762.7 514.7H261.3c-15.6 0-28.3-12.7-28.3-28.3V479c0-15.6 12.7-28.3 28.3-28.3h501.4c15.6 0 28.3 12.7 28.3 28.3v7.4c0 15.5-12.7 28.3-28.3 28.3zM762.7 703.9H261.3c-15.6 0-28.3-12.7-28.3-28.3v-7.4c0-15.6 12.7-28.3 28.3-28.3h501.4c15.6 0 28.3 12.7 28.3 28.3v7.4c0 15.6-12.7 28.3-28.3 28.3z" fill="" /></svg>